# xmcd
#
# Track frame offsets:
# 150
# 13914
# 28624
# 44053
# 60740
# 73019
# 85533
# 99336
# 114483
# 128793
# 143992
# 157677
# 174704
# 190449
# 203398
# 215879
# 231946
# 243847
# 256580
# 273482
#
# Disc length: 3803 seconds
#
#
# Revision: 0
# Processed by: cddbd v1.5.2PL0 Copyright (c) Steve Scherf et al.
# Submitted via: FreeRIP 2.951 
#
DISCID=190ed914
DTITLE=Batidão Sertanejo - Vol 2
DYEAR=2006
DGENRE=Country
TTITLE0=Bão demais da conta - Teodoro e Sampaio
TTITLE1=Pra dá um picote - Rick e Renner
TTITLE2=A gente vai - Edson e Hudson
TTITLE3=Eu já fui de você - Gino e Geno
TTITLE4=Sapateia - Alan e Aladin
TTITLE5=Coice de vaca - Gian e Giovani
TTITLE6=Quebradeira - Daniel
TTITLE7=Tadim tadim - Gilberto e Gilmar
TTITLE8=De latinha na mão - Leonardo e Zeca Pagodinho
TTITLE9=Tremelé - Zé Henrique e Gabriel
TTITLE10=Ce tá querendo o quê - Rick e Renner
TTITLE11=Festa louca - Hugo Pena e Gabriel
TTITLE12=Dando mole - Gino e Geno
TTITLE13=Nois enrola mais não casa - Hugo e Tiago
TTITLE14=Eu achei bom - Adalberto e Adriano
TTITLE15=No batidão da viola - Pedro e Thiago
TTITLE16=Na saideira - Eduardo Costa
TTITLE17=Mulher sempre mulher - Chitãozinho e Xororó
TTITLE18=Mete o pé na solidão - Guilherme e Santiago
TTITLE19=O de tonto não tem dono - Felipe e Falcão
EXTD=PiratCorp S/A
EXTT0=
EXTT1=
EXTT2=
EXTT3=
EXTT4=
EXTT5=
EXTT6=
EXTT7=
EXTT8=
EXTT9=
EXTT10=
EXTT11=
EXTT12=
EXTT13=
EXTT14=
EXTT15=
EXTT16=
EXTT17=
EXTT18=
EXTT19=
PLAYORDER=
